<svg viewBox="250 330 700 525" preserveAspectRatio="xMidYMid meet" xmlns="http://www.w3.org/2000/svg" width="480" height="360"><rect x="250" y="330" width="700" height="525" fill="#F1EFE9"></rect><g><ellipse cx="600" cy="704" rx="340" ry="12" fill="rgba(36, 39, 34, 0.12)"></ellipse><rect x="300" y="688" width="130" height="12" rx="6" fill="#3A3D38"></rect><rect x="770" y="688" width="130" height="12" rx="6" fill="#3A3D38"></rect><rect x="350" y="590" width="30" height="100" fill="#3A3D38"></rect><rect x="820" y="590" width="30" height="100" fill="#3A3D38"></rect><rect x="354" y="490" width="22" height="102" fill="#565A52"></rect><rect x="824" y="490" width="22" height="102" fill="#565A52"></rect><rect x="365" y="490" width="470" height="12" fill="#3A3D38"></rect><path d="M306 440 H894 L932 474 H268 Z" fill="#F8F6F1"></path><ellipse cx="790" cy="447" rx="12" ry="3" fill="#D9D4C8"></ellipse><rect x="268" y="474" width="664" height="16" rx="2" fill="#E3DFD5"></rect><rect x="268" y="488" width="664" height="2" fill="#000000" opacity="0.06"></rect><rect x="842" y="490" width="46" height="10" rx="3" fill="#3A3D38"></rect><circle cx="853" cy="495" r="2" fill="#8FA588"></circle></g></svg>
